REM DIRINDEX 1\5,1\2\6,1\2\7,1\3\8,1\3\9,1\4\10,1\4\11,1\4\12
REM DIRNAME cjc026,folder01,folder02,folder03,folder04,folder05,folder06,folder07,folder08,folder09,folder10,folder11
TITLE ""
FILE "EJE_DB3000_5th_1A_05.mp3" MP3
  TRACK 01 AUDIO
    TITLE "0:"
    INDEX 01 00:00:00
  TRACK 02 AUDIO
    TITLE "10:cjc026_06981"
    INDEX 01 00:00:10
  TRACK 03 AUDIO
    TITLE "0:"
    INDEX 01 00:01:27
  TRACK 04 AUDIO
    TITLE "11:cjc026_06982"
    INDEX 01 00:01:65
  TRACK 05 AUDIO
    TITLE "0:"
    INDEX 01 00:03:18
  TRACK 06 AUDIO
    TITLE "12:cjc026_06983"
    INDEX 01 00:03:55
  TRACK 07 AUDIO
    TITLE "0:"
    INDEX 01 00:04:72
  TRACK 08 AUDIO
    TITLE "10:cjc026_06984"
    INDEX 01 00:05:32
  TRACK 09 AUDIO
    TITLE "0:"
    INDEX 01 00:06:71
  TRACK 10 AUDIO
    TITLE "11:cjc026_06985"
    INDEX 01 00:07:33
  TRACK 11 AUDIO
    TITLE "0:"
    INDEX 01 00:08:66
  TRACK 12 AUDIO
    TITLE "12:cjc026_06986"
    INDEX 01 00:09:27
  TRACK 13 AUDIO
    TITLE "0:"
    INDEX 01 00:10:62
  TRACK 14 AUDIO
    TITLE "10:cjc026_06987"
    INDEX 01 00:11:25
  TRACK 15 AUDIO
    TITLE "0:"
    INDEX 01 00:12:55
  TRACK 16 AUDIO
    TITLE "11:cjc026_06988"
    INDEX 01 00:13:15
  TRACK 17 AUDIO
    TITLE "0:"
    INDEX 01 00:14:51
  TRACK 18 AUDIO
    TITLE "12:cjc026_06989"
    INDEX 01 00:15:11
  TRACK 19 AUDIO
    TITLE "0:"
    INDEX 01 00:16:41
  TRACK 20 AUDIO
    TITLE "10:cjc026_06990"
    INDEX 01 00:17:02
  TRACK 21 AUDIO
    TITLE "0:"
    INDEX 01 00:18:13
  TRACK 22 AUDIO
    TITLE "11:cjc026_06991"
    INDEX 01 00:18:48
  TRACK 23 AUDIO
    TITLE "0:"
    INDEX 01 00:19:73
  TRACK 24 AUDIO
    TITLE "12:cjc026_06992"
    INDEX 01 00:20:33
  TRACK 25 AUDIO
    TITLE "0:"
    INDEX 01 00:21:45
  TRACK 26 AUDIO
    TITLE "10:cjc026_06993"
    INDEX 01 00:22:07
  TRACK 27 AUDIO
    TITLE "0:"
    INDEX 01 00:23:35
  TRACK 28 AUDIO
    TITLE "11:cjc026_06994"
    INDEX 01 00:23:70
  TRACK 29 AUDIO
    TITLE "0:"
    INDEX 01 00:25:23
  TRACK 30 AUDIO
    TITLE "12:cjc026_06995"
    INDEX 01 00:25:60
  TRACK 31 AUDIO
    TITLE "0:"
    INDEX 01 00:27:13
  TRACK 32 AUDIO
    TITLE "10:cjc026_06996"
    INDEX 01 00:27:48
  TRACK 33 AUDIO
    TITLE "0:"
    INDEX 01 00:29:17
  TRACK 34 AUDIO
    TITLE "11:cjc026_06997"
    INDEX 01 00:29:55
  TRACK 35 AUDIO
    TITLE "0:"
    INDEX 01 00:31:21
  TRACK 36 AUDIO
    TITLE "12:cjc026_06998"
    INDEX 01 00:31:59
  TRACK 37 AUDIO
    TITLE "0:"
    INDEX 01 00:33:27
  TRACK 38 AUDIO
    TITLE "10:cjc026_06999"
    INDEX 01 00:33:63
  TRACK 39 AUDIO
    TITLE "0:"
    INDEX 01 00:34:71
  TRACK 40 AUDIO
    TITLE "11:cjc026_07000"
    INDEX 01 00:35:37
  TRACK 41 AUDIO
    TITLE "0:"
    INDEX 01 00:36:62
  TRACK 42 AUDIO
    TITLE "12:cjc026_07001"
    INDEX 01 00:37:22
  TRACK 43 AUDIO
    TITLE "0:"
    INDEX 01 00:38:33
  TRACK 44 AUDIO
    TITLE "10:cjc026_07002"
    INDEX 01 00:38:71
  TRACK 45 AUDIO
    TITLE "0:"
    INDEX 01 00:40:13
  TRACK 46 AUDIO
    TITLE "11:cjc026_07003"
    INDEX 01 00:40:48
  TRACK 47 AUDIO
    TITLE "0:"
    INDEX 01 00:41:67
  TRACK 48 AUDIO
    TITLE "12:cjc026_07004"
    INDEX 01 00:42:27
  TRACK 49 AUDIO
    TITLE "0:"
    INDEX 01 00:43:44
  TRACK 50 AUDIO
    TITLE "10:cjc026_07005"
    INDEX 01 00:44:07
  TRACK 51 AUDIO
    TITLE "0:"
    INDEX 01 00:45:21
  TRACK 52 AUDIO
    TITLE "11:cjc026_07006"
    INDEX 01 00:45:59
  TRACK 53 AUDIO
    TITLE "0:"
    INDEX 01 00:47:14
  TRACK 54 AUDIO
    TITLE "12:cjc026_07007"
    INDEX 01 00:47:52
  TRACK 55 AUDIO
    TITLE "0:"
    INDEX 01 00:48:69
  TRACK 56 AUDIO
    TITLE "10:cjc026_07008"
    INDEX 01 00:49:29
  TRACK 57 AUDIO
    TITLE "0:"
    INDEX 01 00:50:40
  TRACK 58 AUDIO
    TITLE "11:cjc026_07009"
    INDEX 01 00:51:00
  TRACK 59 AUDIO
    TITLE "0:"
    INDEX 01 00:53:29
  TRACK 60 AUDIO
    TITLE "12:cjc026_07010"
    INDEX 01 00:53:64
  TRACK 61 AUDIO
    TITLE "0:"
    INDEX 01 00:55:00
  TRACK 62 AUDIO
    TITLE "10:cjc026_07011"
    INDEX 01 00:55:38
  TRACK 63 AUDIO
    TITLE "0:"
    INDEX 01 00:56:55
  TRACK 64 AUDIO
    TITLE "11:cjc026_07012"
    INDEX 01 00:57:18
  TRACK 65 AUDIO
    TITLE "0:"
    INDEX 01 00:58:69
  TRACK 66 AUDIO
    TITLE "12:cjc026_07013"
    INDEX 01 00:59:30
  TRACK 67 AUDIO
    TITLE "0:"
    INDEX 01 01:00:49
  TRACK 68 AUDIO
    TITLE "10:cjc026_07014"
    INDEX 01 01:01:09
  TRACK 69 AUDIO
    TITLE "0:"
    INDEX 01 01:02:18
  TRACK 70 AUDIO
    TITLE "11:cjc026_07015"
    INDEX 01 01:02:56
  TRACK 71 AUDIO
    TITLE "0:"
    INDEX 01 01:05:44
  TRACK 72 AUDIO
    TITLE "12:cjc026_07016"
    INDEX 01 01:06:04
  TRACK 73 AUDIO
    TITLE "0:"
    INDEX 01 01:07:13
  TRACK 74 AUDIO
    TITLE "10:cjc026_07017"
    INDEX 01 01:07:51
  TRACK 75 AUDIO
    TITLE "0:"
    INDEX 01 01:09:00
  TRACK 76 AUDIO
    TITLE "11:cjc026_07018"
    INDEX 01 01:09:36
  TRACK 77 AUDIO
    TITLE "0:"
    INDEX 01 01:10:42
  TRACK 78 AUDIO
    TITLE "12:cjc026_07019"
    INDEX 01 01:11:04
  TRACK 79 AUDIO
    TITLE "0:"
    INDEX 01 01:12:29
